PathFileType	4	(X/Y/Z)	C:\Users\italobelli\Desktop\GitHub\PTbot_officialCBL\Personal_Results\ABD02_noisy1.trc
DataRate	CameraRate	NumFrames	NumMarkers	Units	OrigDataRate	OrigDataStartFrame	OrigNumFrames
106.125000	106.125000	34	9	m	106.125000	426	850
Frame#	Time		gu		centelbow		EpL		centpxt8		centijc7		ij		ts		aa		ai
			X1	Y1	Z1	X2	Y2	Z2	X3	Y3	Z3	X4	Y4	Z4	X5	Y5	Z5	X6	Y6	Z6	X7	Y7	Z7	X8	Y8	Z8	X9	Y9	Z9

426	4.0047	-0.11178	0.066648	0.096695	-0.060391	0.28368	0.18902	-0.081345	0.29379	0.1667	-0.046816	-0.15316	-0.008669	-0.046816	0.031938	-0.008669	0	0	0	-0.14826	-0.019969	0.047981	-0.15538	0.089362	0.095109	-0.14544	-0.059891	0.15421
427	4.0141	-0.11179	0.06666	0.096676	-0.060536	0.28354	0.18917	-0.081479	0.29366	0.16685	-0.046816	-0.15316	-0.008669	-0.046816	0.031938	-0.008669	0	0	0	-0.14826	-0.019976	0.047943	-0.15539	0.089352	0.095084	-0.14545	-0.059911	0.15417
428	4.0236	-0.1118	0.066675	0.096657	-0.06068	0.28343	0.18932	-0.081612	0.29356	0.16699	-0.046816	-0.15316	-0.008669	-0.046816	0.031938	-0.008669	0	0	0	-0.14827	-0.019984	0.047906	-0.15541	0.08934	0.09506	-0.14545	-0.059932	0.15413
429	4.033	-0.11182	0.066692	0.096638	-0.060825	0.28335	0.18947	-0.081745	0.29348	0.16713	-0.046816	-0.15316	-0.008669	-0.046816	0.031938	-0.008669	0	0	0	-0.14826	-0.019993	0.04787	-0.15542	0.089328	0.095036	-0.14545	-0.059954	0.15409
430	4.0424	-0.11183	0.066712	0.09662	-0.060969	0.28329	0.18961	-0.081877	0.29344	0.16727	-0.046816	-0.15316	-0.008669	-0.046816	0.031938	-0.008669	0	0	0	-0.14826	-0.020004	0.047834	-0.15544	0.089315	0.095013	-0.14545	-0.059976	0.15405
431	4.0518	-0.11185	0.066734	0.096602	-0.061114	0.28326	0.18976	-0.08201	0.29342	0.16741	-0.046816	-0.15316	-0.008669	-0.046816	0.031938	-0.008669	0	0	0	-0.14825	-0.020015	0.047798	-0.15546	0.089302	0.094989	-0.14545	-0.059999	0.15401
432	4.0612	-0.11187	0.066759	0.096585	-0.06126	0.28326	0.18991	-0.082143	0.29342	0.16755	-0.046816	-0.15316	-0.008669	-0.046816	0.031938	-0.008669	0	0	0	-0.14824	-0.020027	0.047763	-0.15548	0.089287	0.094966	-0.14545	-0.060023	0.15397
433	4.0707	-0.11189	0.066785	0.096568	-0.061405	0.28327	0.19006	-0.082275	0.29345	0.16768	-0.046816	-0.15316	-0.008669	-0.046816	0.031938	-0.008669	0	0	0	-0.14823	-0.020039	0.047728	-0.1555	0.089272	0.094943	-0.14544	-0.060048	0.15393
434	4.0801	-0.11191	0.066814	0.096551	-0.061552	0.28332	0.1902	-0.082409	0.2935	0.16782	-0.046816	-0.15316	-0.008669	-0.046816	0.031938	-0.008669	0	0	0	-0.14821	-0.020053	0.047693	-0.15552	0.089256	0.09492	-0.14544	-0.060074	0.15389
435	4.0895	-0.11194	0.066844	0.096535	-0.061699	0.28338	0.19035	-0.082542	0.29357	0.16796	-0.046816	-0.15316	-0.008669	-0.046816	0.031938	-0.008669	0	0	0	-0.14818	-0.020068	0.047659	-0.15554	0.089239	0.094897	-0.14543	-0.060101	0.15385
436	4.0989	-0.11197	0.066876	0.096519	-0.061847	0.28347	0.1905	-0.082676	0.29367	0.1681	-0.046816	-0.15316	-0.008669	-0.046816	0.031938	-0.008669	0	0	0	-0.14816	-0.020083	0.047624	-0.15557	0.089221	0.094875	-0.14541	-0.060128	0.15382
437	4.1084	-0.112	0.066909	0.096503	-0.061996	0.28357	0.19066	-0.082811	0.29378	0.16824	-0.046816	-0.15316	-0.008669	-0.046816	0.031938	-0.008669	0	0	0	-0.14813	-0.020099	0.04759	-0.15559	0.089202	0.094852	-0.1454	-0.060157	0.15378
438	4.1178	-0.11203	0.066944	0.096488	-0.062146	0.2837	0.19081	-0.082946	0.29391	0.16838	-0.046816	-0.15316	-0.008669	-0.046816	0.031938	-0.008669	0	0	0	-0.1481	-0.020115	0.047556	-0.15561	0.089182	0.09483	-0.14539	-0.060186	0.15374
439	4.1272	-0.11206	0.066981	0.096473	-0.062297	0.28384	0.19096	-0.083082	0.29406	0.16852	-0.046816	-0.15316	-0.008669	-0.046816	0.031938	-0.008669	0	0	0	-0.14806	-0.020133	0.047522	-0.15564	0.089161	0.094809	-0.14537	-0.060216	0.1537
440	4.1366	-0.11209	0.067018	0.096459	-0.06245	0.284	0.19112	-0.08322	0.29423	0.16867	-0.046816	-0.15316	-0.008669	-0.046816	0.031938	-0.008669	0	0	0	-0.14802	-0.02015	0.047488	-0.15567	0.08914	0.094787	-0.14535	-0.060248	0.15367
441	4.1461	-0.11212	0.067057	0.096445	-0.062604	0.28418	0.19128	-0.083358	0.29442	0.16882	-0.046816	-0.15316	-0.008669	-0.046816	0.031938	-0.008669	0	0	0	-0.14798	-0.020169	0.047454	-0.15569	0.089117	0.094766	-0.14533	-0.06028	0.15363
442	4.1555	-0.11216	0.067096	0.096431	-0.06276	0.28437	0.19145	-0.083497	0.29461	0.16897	-0.046816	-0.15316	-0.008669	-0.046816	0.031938	-0.008669	0	0	0	-0.14793	-0.020187	0.047419	-0.15572	0.089093	0.094745	-0.14531	-0.060314	0.15359
443	4.1649	-0.1122	0.067137	0.096417	-0.062917	0.28457	0.19161	-0.083638	0.29483	0.16912	-0.046816	-0.15316	-0.008669	-0.046816	0.031938	-0.008669	0	0	0	-0.14788	-0.020207	0.047385	-0.15575	0.089068	0.094724	-0.14529	-0.060348	0.15355
444	4.1743	-0.11224	0.067178	0.096404	-0.063076	0.28479	0.19178	-0.083781	0.29505	0.16927	-0.046816	-0.15316	-0.008669	-0.046816	0.031938	-0.008669	0	0	0	-0.14783	-0.020226	0.04735	-0.15578	0.089042	0.094704	-0.14526	-0.060383	0.15351
445	4.1837	-0.11228	0.067219	0.096391	-0.063237	0.28503	0.19195	-0.083925	0.29529	0.16943	-0.046816	-0.15316	-0.008669	-0.046816	0.031938	-0.008669	0	0	0	-0.14777	-0.020247	0.047315	-0.15581	0.089015	0.094683	-0.14523	-0.06042	0.15347
446	4.1932	-0.11232	0.067261	0.096378	-0.0634	0.28527	0.19213	-0.08407	0.29554	0.16959	-0.046816	-0.15316	-0.008669	-0.046816	0.031938	-0.008669	0	0	0	-0.14771	-0.020267	0.04728	-0.15584	0.088987	0.094663	-0.14521	-0.060457	0.15343
447	4.2026	-0.11236	0.067304	0.096366	-0.063565	0.28552	0.19231	-0.084218	0.2958	0.16975	-0.046816	-0.15316	-0.008669	-0.046816	0.031938	-0.008669	0	0	0	-0.14765	-0.020288	0.047244	-0.15587	0.088958	0.094644	-0.14518	-0.060496	0.15339
448	4.212	-0.11241	0.067346	0.096354	-0.063732	0.28579	0.19249	-0.084367	0.29607	0.16992	-0.046816	-0.15316	-0.008669	-0.046816	0.031938	-0.008669	0	0	0	-0.14759	-0.020309	0.047208	-0.1559	0.088928	0.094625	-0.14515	-0.060536	0.15335
449	4.2214	-0.11245	0.067389	0.096342	-0.063902	0.28606	0.19268	-0.084518	0.29635	0.17009	-0.046816	-0.15316	-0.008669	-0.046816	0.031938	-0.008669	0	0	0	-0.14752	-0.02033	0.047172	-0.15594	0.088896	0.094605	-0.14511	-0.060577	0.15331
450	4.2309	-0.1125	0.067432	0.096331	-0.064074	0.28634	0.19287	-0.084672	0.29664	0.17027	-0.046816	-0.15316	-0.008669	-0.046816	0.031938	-0.008669	0	0	0	-0.14745	-0.020351	0.047135	-0.15597	0.088864	0.094587	-0.14508	-0.060619	0.15327
451	4.2403	-0.11255	0.067474	0.096319	-0.064249	0.28663	0.19307	-0.084828	0.29693	0.17045	-0.046816	-0.15316	-0.008669	-0.046816	0.031938	-0.008669	0	0	0	-0.14737	-0.020373	0.047097	-0.156	0.08883	0.094568	-0.14504	-0.060662	0.15322
452	4.2497	-0.11259	0.067517	0.096308	-0.064427	0.28692	0.19327	-0.084986	0.29723	0.17064	-0.046816	-0.15316	-0.008669	-0.046816	0.031938	-0.008669	0	0	0	-0.1473	-0.020394	0.047059	-0.15604	0.088795	0.09455	-0.145	-0.060707	0.15318
453	4.2591	-0.11264	0.067558	0.096298	-0.064607	0.28721	0.19348	-0.085147	0.29754	0.17083	-0.046816	-0.15316	-0.008669	-0.046816	0.031938	-0.008669	0	0	0	-0.14722	-0.020416	0.047021	-0.15607	0.088759	0.094532	-0.14497	-0.060752	0.15313
454	4.2686	-0.11269	0.0676	0.096287	-0.064791	0.28751	0.1937	-0.085311	0.29784	0.17103	-0.046816	-0.15316	-0.008669	-0.046816	0.031938	-0.008669	0	0	0	-0.14714	-0.020438	0.046981	-0.1561	0.088721	0.094515	-0.14493	-0.060799	0.15308
455	4.278	-0.11274	0.06764	0.096277	-0.064977	0.28782	0.19392	-0.085477	0.29815	0.17123	-0.046816	-0.15316	-0.008669	-0.046816	0.031938	-0.008669	0	0	0	-0.14705	-0.020459	0.046941	-0.15614	0.088682	0.094498	-0.14488	-0.060848	0.15303
456	4.2874	-0.1128	0.06768	0.096267	-0.065167	0.28812	0.19414	-0.085646	0.29847	0.17144	-0.046816	-0.15316	-0.008669	-0.046816	0.031938	-0.008669	0	0	0	-0.14697	-0.020481	0.046901	-0.15617	0.088642	0.094481	-0.14484	-0.060897	0.15298
457	4.2968	-0.11285	0.067719	0.096258	-0.06536	0.28843	0.19437	-0.085818	0.29878	0.17166	-0.046816	-0.15316	-0.008669	-0.046816	0.031938	-0.008669	0	0	0	-0.14688	-0.020502	0.046859	-0.15621	0.088601	0.094465	-0.1448	-0.060948	0.15293
458	4.3062	-0.1129	0.067757	0.096248	-0.065556	0.28873	0.19461	-0.085993	0.2991	0.17188	-0.046816	-0.15316	-0.008669	-0.046816	0.031938	-0.008669	0	0	0	-0.14678	-0.020524	0.046817	-0.15624	0.088558	0.094448	-0.14475	-0.061	0.15288
459	4.3157	-0.11296	0.067794	0.096239	-0.065756	0.28904	0.19486	-0.086171	0.29941	0.17211	-0.046816	-0.15316	-0.008669	-0.046816	0.031938	-0.008669	0	0	0	-0.14669	-0.020545	0.046773	-0.15628	0.088514	0.094433	-0.1447	-0.061053	0.15282
